<svg width="112" height="39" viewBox="0 0 112 39" fill="none" xmlns="http://www.w3.org/2000/svg">
<g clip-path="url(#clip0_1_339)">
<path fill-rule="evenodd" clip-rule="evenodd" d="M25.1186 16.2713C25.7768 16.2713 26.1925 16.4194 26.7742 17.2588C27.5176 18.3317 28.0993 19.9926 28.6536 21.6564C34.1978 16.0902 34.0102 11.8303 31.3297 9.50054C29.6842 8.27957 27.9578 7.75587 26.4451 7.57781C25.9803 7.52244 25.5357 7.5 25.1171 7.5V16.2713H25.1186Z" fill="#00A98E"/>
<path fill-rule="evenodd" clip-rule="evenodd" d="M14.1327 16.373C14.7779 16.373 15.185 16.5226 15.7537 17.371C16.549 18.5591 17.1567 20.4579 17.7456 22.2939C17.952 22.9417 18.1657 23.6106 18.3908 24.26C19.1183 26.3488 20.2312 28.1309 21.653 29.4985L24.6785 26.3578L25.4478 25.5603L27.7169 23.2066C27.3416 22.9268 26.822 22.3612 26.4337 21.2464C26.2461 20.7078 26.0584 20.1197 25.8607 19.4988C25.1173 17.178 24.2758 14.546 22.7746 12.3061C20.1129 8.33344 16.6068 7.5 14.1327 7.5V16.373Z" fill="#00A98E"/>
<path fill-rule="evenodd" clip-rule="evenodd" d="M3.14795 16.373C3.7975 16.373 4.20744 16.5226 4.78048 17.371C5.58304 18.5591 6.19506 20.4579 6.78687 22.2939C6.99617 22.9417 7.21269 23.6106 7.43931 24.26C8.17257 26.3503 9.29557 28.1324 10.7289 29.5L13.7789 26.3608L16.8419 23.2081C16.4652 22.9283 15.9397 22.3642 15.5471 21.2464C15.358 20.7078 15.1689 20.1197 14.9697 19.4988C14.2192 17.178 13.3719 14.546 11.8577 12.3061C9.17432 8.33344 5.64078 7.5 3.14795 7.5V16.373Z" fill="#00A98E"/>
</g>
<path fill-rule="evenodd" clip-rule="evenodd" d="M66.8923 26.0213H63.4961V13.7471H66.8923V26.0213ZM66.917 11.371H63.4468V7.80688H66.917V11.371ZM77.1281 21.8394C76.5834 22.4085 75.8649 22.705 74.9973 22.705C74.1298 22.705 73.4102 22.4085 72.8654 21.8394C72.3196 21.2691 72.0472 20.5031 72.0472 19.538C72.0472 18.5728 72.3196 17.8057 72.8654 17.2354C73.4102 16.6425 74.1298 16.345 74.9973 16.345C75.8649 16.345 76.5834 16.6425 77.1281 17.2354C77.674 17.8057 77.9463 18.5728 77.9463 19.538C77.9463 20.5031 77.674 21.2703 77.1281 21.8394ZM81.3426 13.746H78.3678V13.7471L77.9463 15.5552H77.8477C77.4756 14.2925 75.9882 13.4507 74.1791 13.4507C72.518 13.4507 71.1797 14.0198 70.1642 15.1332C69.1475 16.2465 68.651 17.7073 68.651 19.5391C68.651 21.3698 69.1475 22.8543 70.1642 23.9677C71.1797 25.0822 72.518 25.6264 74.1791 25.6264C75.9882 25.6264 77.4509 24.8095 77.8477 23.5479H77.9463V24.7586C77.9463 26.8631 76.608 28.248 74.6499 28.248C73.2376 28.248 71.9486 27.3825 71.4532 26.096L68.651 27.6302C69.1722 28.6938 69.9904 29.5605 71.1057 30.2032C72.2209 30.8719 73.4348 31.1932 74.7238 31.1932C76.7078 31.1932 78.2938 30.6241 79.5077 29.461C80.7227 28.2978 81.3426 26.7884 81.3426 24.883V13.746ZM91.529 21.8394C90.9832 22.4085 90.2647 22.705 89.3971 22.705C88.5296 22.705 87.8111 22.4085 87.2652 21.8394C86.7205 21.2691 86.447 20.5031 86.447 19.538C86.447 18.5728 86.7205 17.8057 87.2652 17.2354C87.8111 16.6425 88.5296 16.345 89.3971 16.345C90.2647 16.345 90.9832 16.6425 91.529 17.2354C92.0738 17.8057 92.3473 18.5728 92.3473 19.538C92.3473 20.5031 92.0738 21.2703 91.529 21.8394ZM95.7424 13.746H92.7676V13.7471L92.3461 15.5552H92.2475C91.8754 14.2925 90.3891 13.4507 88.5789 13.4507C86.9178 13.4507 85.5795 14.0198 84.5639 15.1332C83.5473 16.2465 83.0508 17.7073 83.0508 19.5391C83.0508 21.3698 83.5473 22.8543 84.5639 23.9677C85.5795 25.0822 86.9189 25.6264 88.5789 25.6264C90.3891 25.6264 91.8507 24.8095 92.2475 23.5479H92.3461V24.7586C92.3461 26.8631 91.0078 28.248 89.0497 28.248C87.6374 28.248 86.3484 27.3825 85.8529 26.096L83.0508 27.6302C83.572 28.6938 84.3902 29.5605 85.5055 30.2032C86.6207 30.8719 87.8358 31.1932 89.1248 31.1932C91.1064 31.1932 92.6936 30.6241 93.9086 29.461C95.1225 28.2978 95.7424 26.7884 95.7424 24.883V13.746ZM101.888 26.0213H104.069V22.8283H102.26C101.491 22.8283 101.07 22.4085 101.07 21.69V7.80688H97.6736V21.888C97.6736 24.5368 99.2114 26.0213 101.888 26.0213ZM108.828 26.0213H105.432V13.7471H108.828V26.0213ZM108.852 11.371H105.382V7.80688H108.852V11.371ZM62.5065 13.747H58.7392L56.6813 22.8044L54.3768 13.747H51.3034L49.0224 22.7049L46.9903 13.747H43.1479L46.7426 26.0212H51.0546L52.8401 18.4732L54.6245 26.0212H58.9118L62.5065 13.747Z" fill="#1A1C1D"/>
<defs>
<clipPath id="clip0_1_339">
<rect width="30" height="22" fill="white" transform="translate(3.14795 7.5)"/>
</clipPath>
</defs>
</svg>
